<?xml version="1.0" encoding="UTF-8"?>
<!---
  Copyright 2024 SECO Mind Srl

  SPDX-License-Identifier: Apache-2.0
-->
<svg id="Livello_1" xmlns="http://www.w3.org/2000/svg" viewBox="0 0 348.99 156.41"><defs><style>.cls-1{fill:#f2f2f2;}</style></defs><path class="cls-1" d="m148.21,94.22c-5.36,0-10.4-1.07-15.12-3.2-4.72-2.13-8.86-5.09-12.43-8.86-3.57-3.78-6.36-8.15-8.38-13.11-2.02-4.96-3.03-10.28-3.03-15.95s1.01-11.04,3.03-16c2.02-4.97,4.81-9.33,8.38-13.08,3.57-3.76,7.71-6.7,12.43-8.84,4.72-2.13,9.76-3.2,15.12-3.2,6.42,0,12.33,1.48,17.73,4.45,5.4,2.96,9.88,6.92,13.42,11.87l-15.18,8.16c-1.96-2.27-4.33-4.08-7.08-5.44-2.76-1.36-5.72-2.04-8.89-2.04s-5.86.62-8.53,1.87c-2.66,1.25-5,2.97-7.02,5.18-2.02,2.21-3.6,4.77-4.73,7.68-1.13,2.91-1.7,6.04-1.7,9.4s.57,6.44,1.7,9.35c1.13,2.91,2.71,5.47,4.73,7.67,2.02,2.21,4.36,3.95,7.02,5.21,2.66,1.27,5.5,1.9,8.53,1.9,3.17,0,6.14-.69,8.89-2.07,2.76-1.38,5.12-3.22,7.08-5.52l15.18,8.27c-3.55,4.91-8.03,8.86-13.42,11.84-5.4,2.98-11.31,4.47-17.73,4.47"/><rect class="cls-1" x="189.57" y="7.78" width="16.99" height="84.97"/><path class="cls-1" d="m243.95,94.22c-5.21,0-9.96-1.34-14.25-4.02-4.29-2.68-7.7-6.29-10.25-10.82-2.55-4.53-3.82-9.54-3.82-15.01,0-4.12.74-7.98,2.21-11.58,1.47-3.61,3.5-6.78,6.09-9.52,2.59-2.74,5.6-4.88,9.03-6.43,3.44-1.55,7.1-2.32,10.99-2.32,4.53,0,8.68.99,12.43,2.97,3.76,1.98,6.93,4.66,9.52,8.04,2.59,3.38,4.43,7.18,5.52,11.41,1.09,4.23,1.21,8.59.34,13.08h-37.78c.53,1.32,1.24,2.52,2.12,3.6.89,1.08,1.98,1.93,3.29,2.58s2.82.98,4.56,1.02c1.66.04,3.2-.32,4.62-1.08,1.42-.76,2.65-1.77,3.71-3.06l17.33,4.02c-2.3,5.02-5.74,9.13-10.31,12.32-4.57,3.19-9.69,4.79-15.35,4.79m-10.59-36.65h21.24c-.53-1.62-1.32-3.06-2.38-4.3-1.06-1.25-2.29-2.23-3.71-2.95-1.42-.72-2.94-1.08-4.56-1.08s-3.09.36-4.5,1.08c-1.42.72-2.64,1.7-3.68,2.95-1.04,1.25-1.84,2.68-2.41,4.3"/><path class="cls-1" d="m322,36.1h16.99v56.64h-17.05l-.79-5.1c-1.4,1.96-3.16,3.55-5.3,4.76-2.13,1.21-4.62,1.81-7.45,1.81-4.23,0-8.18-.79-11.87-2.38s-6.92-3.79-9.71-6.6c-2.8-2.81-4.98-6.06-6.54-9.74-1.57-3.68-2.35-7.64-2.35-11.87s.74-7.82,2.21-11.33c1.47-3.51,3.54-6.6,6.2-9.26,2.66-2.66,5.74-4.75,9.23-6.26,3.49-1.51,7.24-2.27,11.24-2.27,3.25,0,6.2.67,8.86,2.01,2.66,1.34,5.03,3.01,7.11,5.01l-.79-5.44Zm-14.05,41.8c2.34,0,4.47-.6,6.4-1.81,1.93-1.21,3.46-2.83,4.59-4.87,1.13-2.04,1.7-4.3,1.7-6.8s-.57-4.76-1.7-6.8c-1.13-2.04-2.66-3.66-4.59-4.87-1.93-1.21-4.06-1.81-6.4-1.81s-4.47.61-6.37,1.81c-1.91,1.21-3.42,2.83-4.53,4.87-1.11,2.04-1.67,4.3-1.67,6.8s.57,4.76,1.7,6.8c1.13,2.04,2.65,3.66,4.56,4.87,1.91,1.21,4.01,1.81,6.32,1.81"/><path class="cls-1" d="m25.09,76.22V24.3h58.93l9.47-16.44h-.02s-75.93-.01-75.93-.01c-4.16,0-7.54,3.69-7.54,8.23v68.38c0,4.54,3.38,8.23,7.54,8.23h73.76c.77,0,1.51-.13,2.22-.36l-9.27-16.09H25.09Z"/><path class="cls-1" d="m70.95,32.91h-31.58c-.91,0-1.64.73-1.64,1.64v31.58c0,.91.73,1.64,1.64,1.64h31.58c.91,0,1.64-.73,1.64-1.64v-31.58c0-.91-.73-1.64-1.64-1.64Zm-23.41,25.84c-.43,0-.79-.35-.79-.79h0v-15.24h0c0-.43.35-.79.79-.79h15.24c.43,0,.79.35.79.79v15.24c0,.43-.35.79-.79.79h-15.24Z"/><polygon class="cls-1" points="189.57 138.73 189.57 111.01 206.44 111.01 206.44 113.78 192.34 113.78 192.34 122.49 204 122.49 204 125.26 192.34 125.26 192.34 135.96 206.44 135.96 206.44 138.73 189.57 138.73"/><path class="cls-1" d="m226.1,109.03h2.77v29.7h-2.77v-3.7c-.69,1.27-1.63,2.29-2.82,3.06-1.19.77-2.61,1.16-4.25,1.16-1.44,0-2.79-.27-4.04-.81-1.25-.54-2.36-1.29-3.32-2.25-.96-.96-1.71-2.06-2.25-3.32-.54-1.25-.81-2.6-.81-4.04s.27-2.79.81-4.05c.54-1.26,1.29-2.37,2.25-3.33.96-.96,2.06-1.71,3.32-2.25,1.25-.54,2.6-.81,4.04-.81,1.64,0,3.05.39,4.25,1.16,1.2.77,2.14,1.79,2.82,3.04v-13.56Zm-7.05,27.52c1.41,0,2.63-.35,3.64-1.04,1.02-.69,1.8-1.63,2.35-2.8.55-1.18.82-2.47.82-3.88s-.28-2.76-.83-3.93c-.55-1.17-1.34-2.1-2.35-2.78-1.02-.68-2.22-1.03-3.62-1.03s-2.67.35-3.82,1.04c-1.15.69-2.07,1.62-2.75,2.8-.69,1.17-1.03,2.48-1.03,3.9s.35,2.74,1.05,3.91c.7,1.17,1.63,2.1,2.78,2.78,1.16.69,2.41,1.03,3.77,1.03"/><path class="cls-1" d="m249.22,118.93h2.77v20.53c0,1.27-.28,2.45-.82,3.56-.55,1.11-1.29,2.08-2.22,2.92-.93.84-1.99,1.49-3.18,1.97-1.19.47-2.42.71-3.7.71-1.37,0-2.7-.31-3.98-.94-1.28-.63-2.39-1.46-3.34-2.5-.94-1.04-1.61-2.2-2.01-3.47l2.55-1.17c.25.99.72,1.88,1.42,2.68.69.8,1.51,1.43,2.46,1.9s1.91.7,2.9.7c.91,0,1.79-.17,2.64-.51.85-.34,1.62-.8,2.3-1.38.68-.58,1.22-1.26,1.61-2.03.4-.77.59-1.6.59-2.46v-4.38c-.69,1.24-1.61,2.25-2.78,3.01-1.17.77-2.52,1.15-4.07,1.15-1.39,0-2.69-.27-3.91-.81-1.22-.54-2.29-1.29-3.22-2.25-.92-.96-1.65-2.06-2.17-3.32-.52-1.25-.78-2.6-.78-4.04s.26-2.79.78-4.05c.52-1.26,1.24-2.37,2.17-3.33.92-.96,2-1.71,3.22-2.25,1.22-.54,2.52-.81,3.91-.81,1.54,0,2.9.38,4.07,1.14,1.17.76,2.1,1.77,2.78,3.02v-3.62Zm-6.83,17.62c1.37,0,2.56-.36,3.55-1.07,1-.71,1.77-1.66,2.31-2.83.54-1.17.81-2.45.81-3.82s-.27-2.7-.82-3.87c-.55-1.17-1.32-2.11-2.33-2.81-1-.71-2.18-1.06-3.52-1.06s-2.57.35-3.67,1.04c-1.1.69-1.98,1.62-2.62,2.8-.65,1.17-.97,2.48-.97,3.9s.33,2.72.99,3.89c.66,1.17,1.54,2.1,2.64,2.79,1.1.69,2.31,1.04,3.63,1.04"/><path class="cls-1" d="m265.26,139.24c-1.82,0-3.48-.47-4.98-1.4-1.5-.94-2.69-2.2-3.58-3.77s-1.34-3.32-1.34-5.24c0-1.45.26-2.81.77-4.07.51-1.26,1.22-2.37,2.13-3.33.9-.96,1.96-1.71,3.16-2.25,1.2-.54,2.48-.81,3.84-.81,1.46,0,2.81.29,4.05.87,1.23.58,2.3,1.39,3.19,2.43.89,1.04,1.56,2.26,2.02,3.66.45,1.4.64,2.91.56,4.53h-16.79c.16,1.26.56,2.38,1.2,3.37.64.99,1.46,1.77,2.45,2.35,1,.57,2.1.87,3.32.88,1.32,0,2.51-.34,3.57-1.03,1.06-.69,1.92-1.63,2.56-2.83l2.81.65c-.79,1.76-1.99,3.19-3.58,4.31-1.6,1.12-3.39,1.67-5.37,1.67m-7.05-11.6h14.08c-.09-1.23-.46-2.35-1.12-3.38-.65-1.02-1.49-1.84-2.52-2.46-1.03-.61-2.16-.92-3.39-.92s-2.35.3-3.37.9c-1.02.6-1.85,1.41-2.49,2.43-.65,1.02-1.04,2.16-1.19,3.42"/><path class="cls-1" d="m295.59,126.47v12.26h-2.77v-11.7c0-1.08-.26-2.07-.79-2.95-.53-.88-1.23-1.59-2.12-2.12-.89-.53-1.87-.79-2.95-.79s-2.05.26-2.94.79c-.89.53-1.6,1.23-2.13,2.12-.53.89-.79,1.87-.79,2.95v11.7h-2.77v-29.7h2.77v12.63c.7-1,1.61-1.8,2.73-2.4,1.12-.6,2.34-.89,3.66-.89,1.49,0,2.85.36,4.08,1.09,1.23.72,2.2,1.7,2.93,2.93.73,1.23,1.09,2.59,1.09,4.08"/><path class="cls-1" d="m307.87,139.24c-1.82,0-3.48-.47-4.98-1.4-1.5-.94-2.69-2.19-3.58-3.77-.89-1.58-1.34-3.32-1.34-5.24,0-1.45.26-2.81.77-4.07.52-1.26,1.22-2.37,2.13-3.33.9-.95,1.96-1.7,3.16-2.25,1.2-.54,2.48-.81,3.84-.81,1.82,0,3.48.47,4.98,1.4,1.5.94,2.69,2.2,3.58,3.78.89,1.58,1.34,3.34,1.34,5.27,0,1.44-.26,2.79-.77,4.04-.52,1.25-1.22,2.36-2.13,3.32-.9.96-1.95,1.71-3.15,2.25-1.2.54-2.48.81-3.85.81m0-2.77c1.35,0,2.56-.35,3.63-1.06,1.07-.7,1.93-1.64,2.55-2.8.63-1.16.94-2.42.94-3.78s-.32-2.66-.95-3.83c-.63-1.17-1.49-2.1-2.56-2.8-1.08-.7-2.28-1.05-3.61-1.05s-2.56.36-3.63,1.06c-1.08.7-1.93,1.64-2.55,2.8-.63,1.16-.94,2.44-.94,3.82s.32,2.72.97,3.87c.65,1.15,1.51,2.07,2.59,2.75,1.08.68,2.27,1.02,3.56,1.02"/><path class="cls-1" d="m336.67,118.93h2.77v20.53c0,1.27-.28,2.45-.82,3.56-.55,1.11-1.29,2.08-2.22,2.92-.93.84-1.99,1.49-3.18,1.97-1.19.47-2.42.71-3.7.71-1.37,0-2.7-.31-3.98-.94-1.28-.63-2.39-1.46-3.34-2.5-.94-1.04-1.61-2.2-2.01-3.47l2.55-1.17c.25.99.72,1.88,1.42,2.68.69.8,1.51,1.43,2.46,1.9.94.47,1.91.7,2.9.7.91,0,1.79-.17,2.64-.51.85-.34,1.62-.8,2.3-1.38.68-.58,1.22-1.26,1.61-2.03.4-.77.59-1.6.59-2.46v-4.38c-.69,1.24-1.61,2.25-2.78,3.01-1.17.77-2.52,1.15-4.07,1.15-1.39,0-2.69-.27-3.91-.81-1.22-.54-2.29-1.29-3.22-2.25s-1.65-2.06-2.17-3.32c-.52-1.25-.78-2.6-.78-4.04s.26-2.79.78-4.05c.52-1.26,1.24-2.37,2.17-3.33s2-1.71,3.22-2.25c1.22-.54,2.52-.81,3.91-.81,1.54,0,2.9.38,4.07,1.14,1.17.76,2.09,1.77,2.78,3.02v-3.62Zm-6.83,17.62c1.37,0,2.56-.36,3.55-1.07,1-.71,1.77-1.66,2.31-2.83.54-1.17.81-2.45.81-3.82s-.27-2.7-.82-3.87c-.55-1.17-1.32-2.11-2.33-2.81-1-.71-2.18-1.06-3.52-1.06s-2.57.35-3.67,1.04c-1.1.69-1.98,1.62-2.62,2.8-.65,1.17-.97,2.48-.97,3.9s.33,2.72.99,3.89c.66,1.17,1.54,2.1,2.64,2.79,1.1.69,2.31,1.04,3.63,1.04"/></svg>
